<svg xmlns="http://www.w3.org/2000/svg" viewBox="0 0 100 100">
  <g stroke="#007BFF" stroke-width="4" stroke-linecap="round">
    <line x1="50" y1="10" x2="50" y2="30"/>
    <line x1="50" y1="70" x2="50" y2="90"/>
    <line x1="10" y1="50" x2="30" y2="50"/>
    <line x1="70" y1="50" x2="90" y2="50"/>
    
    <line x1="20" y1="20" x2="32" y2="32"/>
    <line x1="80" y1="20" x2="68" y2="32"/>
    <line x1="20" y1="80" x2="32" y2="68"/>
    <line x1="80" y1="80" x2="68" y2="68"/>
  </g>

  <g fill="#007BFF">
    <circle cx="50" cy="10" r="5"/>
    <circle cx="50" cy="90" r="5"/>
    <circle cx="10" cy="50" r="5"/>
    <circle cx="90" cy="50" r="5"/>
    <circle cx="20" cy="20" r="5"/>
    <circle cx="80" cy="20" r="5"/>
    <circle cx="20" cy="80" r="5"/>
    <circle cx="80" cy="80" r="5"/>
  </g>

  <rect x="30" y="30" width="40" height="40" rx="6" fill="#007BFF"/>
  
  <text x="50" y="56" font-family="Arial, sans-serif" font-size="20" font-weight="bold" fill="white" text-anchor="middle">AI</text>
</svg>